<svg id="ART" xmlns="http://www.w3.org/2000/svg" viewBox="0 0 200.44 36"><defs><style>.cls-1{fill:#fbab3b;}.cls-2{fill:#fff;}</style></defs><title>logo</title><path class="cls-1" d="M24.2,13.09a12.23,12.23,0,0,0-15-3.83V4.32a4.4,4.4,0,1,0-8.79,0v27.2a4.4,4.4,0,0,0,8.79,0s0-10,0-11.19a5.16,5.16,0,0,1,9.31-3A3.53,3.53,0,0,0,24.2,13.09Z" transform="translate(-0.41 0.08)"/><path class="cls-1" d="M11.62,22.95a12.23,12.23,0,0,0,15,3.83v4.75a4.4,4.4,0,0,0,8.79,0V4.32a4.4,4.4,0,1,0-8.79,0s0,10.18,0,11.38a5.16,5.16,0,0,1-9.31,3A3.53,3.53,0,1,0,11.62,22.95Z" transform="translate(-0.41 0.08)"/><path class="cls-2" d="M52.21,24.58v0.84H46.83V24.58H47a3.94,3.94,0,0,0,.64,0,1.26,1.26,0,0,0,.52-0.2,1.05,1.05,0,0,0,.35-0.43,1.8,1.8,0,0,0,.13-0.75V12.42a1.62,1.62,0,0,0-.13-0.71,1,1,0,0,0-.36-0.42,1.29,1.29,0,0,0-.52-0.19,4.32,4.32,0,0,0-.63,0H46.83V10.23h3.68v4.39q0,0.27,0,.57c0,0.2,0,.38,0,0.55l0,0.58h0.1a3.05,3.05,0,0,1,2.94-1.82,4.58,4.58,0,0,1,1.51.23,2.74,2.74,0,0,1,1.11.7,3.09,3.09,0,0,1,.68,1.22A5.9,5.9,0,0,1,57,18.42v4.73a2,2,0,0,0,.12.75,1,1,0,0,0,.32.43,1.13,1.13,0,0,0,.49.2,3.61,3.61,0,0,0,.62,0H58.6v0.84H55.13v-6.9A5.19,5.19,0,0,0,55,17.36a2.31,2.31,0,0,0-.38-0.86A1.62,1.62,0,0,0,54,16a2.59,2.59,0,0,0-1-.18,2.37,2.37,0,0,0-1.08.23,2,2,0,0,0-.75.65,3,3,0,0,0-.44,1A5.63,5.63,0,0,0,50.51,19v4.22a1.62,1.62,0,0,0,.13.71,1,1,0,0,0,.36.41,1.38,1.38,0,0,0,.52.18,4.32,4.32,0,0,0,.63,0h0.06Z" transform="translate(-0.41 0.08)"/><path class="cls-2" d="M66.9,25.62A5,5,0,0,1,65,25.25a3.86,3.86,0,0,1-1.46-1.07,4.87,4.87,0,0,1-.91-1.72,7.81,7.81,0,0,1-.32-2.32,6.57,6.57,0,0,1,1.15-4.22A4,4,0,0,1,66.7,14.5a4.73,4.73,0,0,1,1.74.3,3.39,3.39,0,0,1,1.31.9,4.09,4.09,0,0,1,.83,1.49,6.78,6.78,0,0,1,.29,2.08V20.2H64.2a8.32,8.32,0,0,0,.22,1.88A3.68,3.68,0,0,0,65,23.37a2.27,2.27,0,0,0,.92.75,3.12,3.12,0,0,0,1.26.24,3.76,3.76,0,0,0,1-.12,3.63,3.63,0,0,0,.81-0.31,3.34,3.34,0,0,0,.64-0.44A2.58,2.58,0,0,0,70,23a0.63,0.63,0,0,1,.26.24,0.78,0.78,0,0,1,.12.44,1.25,1.25,0,0,1-.21.65,2.16,2.16,0,0,1-.65.64,4.06,4.06,0,0,1-1.1.49A5.47,5.47,0,0,1,66.9,25.62Zm-0.24-10a1.94,1.94,0,0,0-1.71.9,5.41,5.41,0,0,0-.71,2.64h4.6a8.22,8.22,0,0,0-.12-1.45,3.73,3.73,0,0,0-.37-1.12,1.87,1.87,0,0,0-.67-0.72A1.92,1.92,0,0,0,66.66,15.58Z" transform="translate(-0.41 0.08)"/><path class="cls-2" d="M74.38,24.58a3.94,3.94,0,0,0,.64,0,1.26,1.26,0,0,0,.52-0.2,1.05,1.05,0,0,0,.35-0.43A1.8,1.8,0,0,0,76,23.15V12.42a1.62,1.62,0,0,0-.13-0.71,1,1,0,0,0-.36-0.42A1.29,1.29,0,0,0,75,11.11a4.32,4.32,0,0,0-.63,0H74.13V10.23h3.78V23.15a1.87,1.87,0,0,0,.13.75,1,1,0,0,0,.35.43,1.3,1.3,0,0,0,.52.2,3.94,3.94,0,0,0,.64,0H79.8v0.84H74.13V24.58h0.25Z" transform="translate(-0.41 0.08)"/><path class="cls-2" d="M93.25,20a10.22,10.22,0,0,1-.27,2.5,4.82,4.82,0,0,1-.79,1.74,3.14,3.14,0,0,1-1.28,1,4.39,4.39,0,0,1-1.75.33,4,4,0,0,1-1-.13,3.13,3.13,0,0,1-.84-0.36,3,3,0,0,1-.66-0.56,3.85,3.85,0,0,1-.5-0.71H86q0,0.52,0,1c0,0.12,0,.25,0,0.39s0,0.26,0,.38,0,0.22,0,.32,0,0.17,0,.22V28a1.62,1.62,0,0,0,.13.71,1,1,0,0,0,.36.41,1.33,1.33,0,0,0,.52.19,4.32,4.32,0,0,0,.63,0h0.06v0.84H82.43V29.39h0.16a3.94,3.94,0,0,0,.64,0,1.26,1.26,0,0,0,.52-0.2,1,1,0,0,0,.35-0.44,1.84,1.84,0,0,0,.13-0.76v-11a1.62,1.62,0,0,0-.13-0.71,1,1,0,0,0-.36-0.42,1.34,1.34,0,0,0-.52-0.2,3.88,3.88,0,0,0-.63,0H82.33V14.7h3.5L86,16.51h0.08a5,5,0,0,1,.51-0.83A2.92,2.92,0,0,1,87.27,15a3,3,0,0,1,.84-0.4,3.65,3.65,0,0,1,1.05-.14,4.39,4.39,0,0,1,1.75.33,3.15,3.15,0,0,1,1.28,1A4.77,4.77,0,0,1,93,17.56,10.05,10.05,0,0,1,93.25,20Zm-4.42-4.26a2.93,2.93,0,0,0-1.3.26,2,2,0,0,0-.83.79,3.81,3.81,0,0,0-.44,1.33A11.75,11.75,0,0,0,86.11,20a11.47,11.47,0,0,0,.13,1.85,4,4,0,0,0,.45,1.35,2.11,2.11,0,0,0,.84.83,2.77,2.77,0,0,0,1.31.28A2.15,2.15,0,0,0,90,24.06a2.11,2.11,0,0,0,.76-0.83,4.35,4.35,0,0,0,.43-1.35A11.21,11.21,0,0,0,91.3,20a11.1,11.1,0,0,0-.14-1.86,4.1,4.1,0,0,0-.43-1.32A2,2,0,0,0,90,16,2.31,2.31,0,0,0,88.82,15.78Z" transform="translate(-0.41 0.08)"/><path class="cls-2" d="M97.06,24.58a4.32,4.32,0,0,0,.63,0,1.38,1.38,0,0,0,.52-0.18A1,1,0,0,0,98.57,24a1.62,1.62,0,0,0,.13-0.71V16.91a1.62,1.62,0,0,0-.13-0.71,1,1,0,0,0-.36-0.42,1.34,1.34,0,0,0-.52-0.2,3.88,3.88,0,0,0-.63,0H97V14.7h3.57v8.45a1.8,1.8,0,0,0,.13.75,1.05,1.05,0,0,0,.35.43,1.26,1.26,0,0,0,.52.2,4,4,0,0,0,.63,0h0.26v0.84H96.8V24.58h0.26Zm1.36-13.12a1.68,1.68,0,0,1,.09-0.59,1,1,0,0,1,.24-0.38,0.87,0.87,0,0,1,.36-0.21,1.63,1.63,0,0,1,.45-0.06,1.59,1.59,0,0,1,.44.06,0.84,0.84,0,0,1,.36.21,1.07,1.07,0,0,1,.24.38,1.9,1.9,0,0,1,0,1.17,1.07,1.07,0,0,1-.24.38,0.88,0.88,0,0,1-.36.21,1.47,1.47,0,0,1-.44.06,1.51,1.51,0,0,1-.45-0.06,0.92,0.92,0,0,1-.36-0.21A1,1,0,0,1,98.51,12,1.68,1.68,0,0,1,98.42,11.46Z" transform="translate(-0.41 0.08)"/><path class="cls-2" d="M110.68,24.58v0.84h-5.38V24.58h0.17a3.94,3.94,0,0,0,.64,0,1.26,1.26,0,0,0,.52-0.2A1.05,1.05,0,0,0,107,23.9a1.8,1.8,0,0,0,.13-0.75V16.91A1.62,1.62,0,0,0,107,16.2a1,1,0,0,0-.36-0.42,1.34,1.34,0,0,0-.52-0.2,3.88,3.88,0,0,0-.63,0H105.4V14.7h3.23l0.26,1.62H109a4.39,4.39,0,0,1,.66-0.91,2.86,2.86,0,0,1,.73-0.56,2.78,2.78,0,0,1,.82-0.27,5.49,5.49,0,0,1,.91-0.07,4.05,4.05,0,0,1,1.41.23,2.66,2.66,0,0,1,1.05.7,3.14,3.14,0,0,1,.66,1.22,6,6,0,0,1,.23,1.77v4.73a2.08,2.08,0,0,0,.11.75,1,1,0,0,0,.32.43,1.13,1.13,0,0,0,.49.2,3.61,3.61,0,0,0,.62,0h0.07v0.84H113.6v-6.9a5.19,5.19,0,0,0-.12-1.16,2.31,2.31,0,0,0-.38-0.86,1.62,1.62,0,0,0-.68-0.53,2.59,2.59,0,0,0-1-.18,2.29,2.29,0,0,0-1.15.26,2.1,2.1,0,0,0-.75.71,3.11,3.11,0,0,0-.41,1A6,6,0,0,0,109,19v4.22a1.62,1.62,0,0,0,.13.71,1,1,0,0,0,.36.41,1.38,1.38,0,0,0,.52.18,4.32,4.32,0,0,0,.63,0h0.06Z" transform="translate(-0.41 0.08)"/><path class="cls-2" d="M130.16,15.12a1.27,1.27,0,0,1-.06.41,0.94,0.94,0,0,1-.19.33,0.89,0.89,0,0,1-.33.22,1.24,1.24,0,0,1-.47.08,1,1,0,0,0,0-.23,0.64,0.64,0,0,0-.1-0.22,0.54,0.54,0,0,0-.2-0.17,0.74,0.74,0,0,0-.33-0.06,1.67,1.67,0,0,0-.46.06,1.49,1.49,0,0,0-.4.19,3.6,3.6,0,0,1,.56,1,4.53,4.53,0,0,1,0,2.8,3,3,0,0,1-.67,1.09,3,3,0,0,1-1.12.72,4.45,4.45,0,0,1-1.59.26H124.2l-0.27,0-0.21,0a3.41,3.41,0,0,0-.37.21A1.62,1.62,0,0,0,123,22a1.18,1.18,0,0,0-.21.33,1,1,0,0,0-.08.41,0.72,0.72,0,0,0,.09.39,0.63,0.63,0,0,0,.26.23,1.16,1.16,0,0,0,.4.11l0.49,0h2.27a4.52,4.52,0,0,1,1.52.22,2.72,2.72,0,0,1,1,.62,2.36,2.36,0,0,1,.58.95,3.82,3.82,0,0,1,.18,1.2,3.69,3.69,0,0,1-.32,1.55,3,3,0,0,1-1,1.18,4.83,4.83,0,0,1-1.66.75,9.33,9.33,0,0,1-2.36.26,5.21,5.21,0,0,1-3.12-.77,2.53,2.53,0,0,1-1-2.15,2.4,2.4,0,0,1,.21-1,2.33,2.33,0,0,1,.55-0.75,2.91,2.91,0,0,1,.8-0.51,4.18,4.18,0,0,1,.95-0.28,2,2,0,0,1-.4-0.23,1.79,1.79,0,0,1-.61-0.82,1.68,1.68,0,0,1-.1-0.59,1.72,1.72,0,0,1,.31-1,3.3,3.3,0,0,1,1-.84,2.57,2.57,0,0,1-.77-0.48,3,3,0,0,1-.57-0.7,3.45,3.45,0,0,1-.35-0.86,3.81,3.81,0,0,1-.12-1,4.77,4.77,0,0,1,.23-1.55,3,3,0,0,1,1.88-1.89,4.85,4.85,0,0,1,1.65-.25,4.74,4.74,0,0,1,.71.05,4.4,4.4,0,0,1,.65.15,3.79,3.79,0,0,1,.54.21,1.8,1.8,0,0,1,.39.24l0.34-.35a3,3,0,0,1,.44-0.35,2.64,2.64,0,0,1,.53-0.27,1.76,1.76,0,0,1,.62-0.11,1.48,1.48,0,0,1,.52.08,1.06,1.06,0,0,1,.37.22,0.91,0.91,0,0,1,.22.33A1.09,1.09,0,0,1,130.16,15.12Zm-8.44,12.06a2.78,2.78,0,0,0,.12.82,1.47,1.47,0,0,0,.41.65,2,2,0,0,0,.79.43,4.29,4.29,0,0,0,1.26.16,7.23,7.23,0,0,0,1.77-.18,3,3,0,0,0,1.11-.5,1.75,1.75,0,0,0,.58-0.77,2.75,2.75,0,0,0,.17-1,1.88,1.88,0,0,0-.13-0.76,1.06,1.06,0,0,0-.39-0.47,1.69,1.69,0,0,0-.64-0.24,5,5,0,0,0-.88-0.07h-2a4.47,4.47,0,0,0-.82.07,1.86,1.86,0,0,0-.7.28,1.45,1.45,0,0,0-.49.58A2.17,2.17,0,0,0,121.72,27.18Zm1.16-9a3.27,3.27,0,0,0,.42,1.88,1.59,1.59,0,0,0,1.39.6,2.07,2.07,0,0,0,.83-0.15,1.3,1.3,0,0,0,.55-0.45,2,2,0,0,0,.31-0.78,5.94,5.94,0,0,0,.09-1.13,3.79,3.79,0,0,0-.41-2,1.8,1.8,0,0,0-2.77,0A3.84,3.84,0,0,0,122.88,18.15Z" transform="translate(-0.41 0.08)"/><path class="cls-2" d="M145.34,24.58v0.84H140V24.58h0.16a3.94,3.94,0,0,0,.64,0,1.26,1.26,0,0,0,.52-0.2,1.05,1.05,0,0,0,.35-0.43,1.8,1.8,0,0,0,.13-0.75V12.42a1.62,1.62,0,0,0-.13-0.71,1,1,0,0,0-.36-0.42,1.29,1.29,0,0,0-.52-0.19,4.32,4.32,0,0,0-.63,0H140V10.23h3.68v4.39q0,0.27,0,.57c0,0.2,0,.38,0,0.55l0,0.58h0.1a3.05,3.05,0,0,1,2.94-1.82,4.58,4.58,0,0,1,1.51.23,2.74,2.74,0,0,1,1.11.7,3.09,3.09,0,0,1,.68,1.22,5.9,5.9,0,0,1,.23,1.77v4.73a2,2,0,0,0,.12.75,1,1,0,0,0,.32.43,1.13,1.13,0,0,0,.49.2,3.61,3.61,0,0,0,.62,0h0.06v0.84h-3.48v-6.9a5.19,5.19,0,0,0-.12-1.16,2.31,2.31,0,0,0-.38-0.86,1.62,1.62,0,0,0-.68-0.53,2.59,2.59,0,0,0-1-.18A2.37,2.37,0,0,0,145,16a2,2,0,0,0-.75.65,3,3,0,0,0-.44,1,5.63,5.63,0,0,0-.15,1.33v4.22a1.62,1.62,0,0,0,.13.71,1,1,0,0,0,.36.41,1.38,1.38,0,0,0,.52.18,4.32,4.32,0,0,0,.63,0h0.06Z" transform="translate(-0.41 0.08)"/><path class="cls-2" d="M159.65,15.5a2.29,2.29,0,0,0-.93.16,1.31,1.31,0,0,0-.56.45,1.73,1.73,0,0,0-.27.69,5.19,5.19,0,0,0-.07.87,2.32,2.32,0,0,1-1.26-.28,1.08,1.08,0,0,1-.43-1,1.38,1.38,0,0,1,.28-0.88,2.08,2.08,0,0,1,.78-0.59,4.42,4.42,0,0,1,1.15-.34,8.6,8.6,0,0,1,1.4-.11,6.3,6.3,0,0,1,1.6.18,2.73,2.73,0,0,1,1.14.59,2.5,2.5,0,0,1,.69,1.07,5,5,0,0,1,.23,1.62v5.19a2.94,2.94,0,0,0,.07.69,1,1,0,0,0,.21.44,0.79,0.79,0,0,0,.39.23,2.1,2.1,0,0,0,.57.07h0.06v0.84H162l-0.31-1.72h-0.17q-0.31.42-.61,0.77a3.53,3.53,0,0,1-.64.61,2.79,2.79,0,0,1-.8.4,3.55,3.55,0,0,1-1.07.14,3.88,3.88,0,0,1-1.24-.19,2.6,2.6,0,0,1-1-.59,2.71,2.71,0,0,1-.65-1,3.9,3.9,0,0,1-.23-1.42,2.66,2.66,0,0,1,1.13-2.36,6.5,6.5,0,0,1,3.43-.84l1.66-.06V18a7.77,7.77,0,0,0-.06-1,2,2,0,0,0-.25-0.78,1.31,1.31,0,0,0-.56-0.51A2.24,2.24,0,0,0,159.65,15.5Zm-2.42,7a2.12,2.12,0,0,0,.4,1.4,1.52,1.52,0,0,0,1.23.46,3,3,0,0,0,1.1-.2,2.35,2.35,0,0,0,.84-0.56,2.44,2.44,0,0,0,.53-0.88,3.4,3.4,0,0,0,.19-1.15V20l-1.28.06a6,6,0,0,0-1.42.21,2.44,2.44,0,0,0-.92.48,1.72,1.72,0,0,0-.5.76A3.23,3.23,0,0,0,157.23,22.52Z" transform="translate(-0.41 0.08)"/><path class="cls-2" d="M173.49,24.58v0.84h-5.38V24.58h0.17a3.94,3.94,0,0,0,.64,0,1.26,1.26,0,0,0,.52-0.2,1.05,1.05,0,0,0,.35-0.43,1.8,1.8,0,0,0,.13-0.75V16.91a1.62,1.62,0,0,0-.13-0.71,1,1,0,0,0-.36-0.42,1.34,1.34,0,0,0-.52-0.2,3.88,3.88,0,0,0-.63,0h-0.06V14.7h3.23l0.26,1.62h0.1a4.39,4.39,0,0,1,.66-0.91,2.86,2.86,0,0,1,.73-0.56,2.78,2.78,0,0,1,.82-0.27,5.49,5.49,0,0,1,.91-0.07,4.05,4.05,0,0,1,1.41.23,2.66,2.66,0,0,1,1.05.7,3.14,3.14,0,0,1,.66,1.22,6,6,0,0,1,.23,1.77v4.73a2.08,2.08,0,0,0,.11.75,1,1,0,0,0,.32.43,1.13,1.13,0,0,0,.49.2,3.61,3.61,0,0,0,.62,0h0.07v0.84h-3.49v-6.9a5.19,5.19,0,0,0-.12-1.16,2.31,2.31,0,0,0-.38-0.86,1.62,1.62,0,0,0-.68-0.53,2.59,2.59,0,0,0-1-.18,2.29,2.29,0,0,0-1.15.26,2.1,2.1,0,0,0-.75.71,3.11,3.11,0,0,0-.41,1,6,6,0,0,0-.12,1.23v4.22a1.62,1.62,0,0,0,.13.71,1,1,0,0,0,.36.41,1.38,1.38,0,0,0,.52.18,4.32,4.32,0,0,0,.63,0h0.06Z" transform="translate(-0.41 0.08)"/><path class="cls-2" d="M192.57,23.22a1.62,1.62,0,0,0,.13.71,1,1,0,0,0,.36.42,1.29,1.29,0,0,0,.52.19,4.32,4.32,0,0,0,.63,0h0.17v0.84H191l-0.21-1.8h-0.08a4.61,4.61,0,0,1-.51.83,3.06,3.06,0,0,1-.66.63,3,3,0,0,1-.84.4,3.65,3.65,0,0,1-1.05.14,4.39,4.39,0,0,1-1.75-.33,3.15,3.15,0,0,1-1.28-1,4.71,4.71,0,0,1-.78-1.72,10.24,10.24,0,0,1-.26-2.48,10.41,10.41,0,0,1,.26-2.5,4.76,4.76,0,0,1,.78-1.74,3.14,3.14,0,0,1,1.28-1,4.39,4.39,0,0,1,1.75-.33,4,4,0,0,1,1,.13,3.1,3.1,0,0,1,1.51.92,3.72,3.72,0,0,1,.51.71h0.12q0-.49-0.06-0.92l0-.74q0-.37,0-0.54V12.42a1.62,1.62,0,0,0-.13-0.71,1,1,0,0,0-.36-0.42,1.29,1.29,0,0,0-.52-0.19,4.32,4.32,0,0,0-.63,0h-0.17V10.23h3.68v13ZM188,24.34a2.93,2.93,0,0,0,1.3-.26,2,2,0,0,0,.84-0.79,3.75,3.75,0,0,0,.45-1.33,11.75,11.75,0,0,0,.13-1.88,11.47,11.47,0,0,0-.13-1.85,3.9,3.9,0,0,0-.45-1.34,2.14,2.14,0,0,0-.84-0.83,2.76,2.76,0,0,0-1.32-.28,2,2,0,0,0-1.89,1.11,4.35,4.35,0,0,0-.43,1.35,11.14,11.14,0,0,0-.14,1.85,6.85,6.85,0,0,0,.58,3.18A2,2,0,0,0,188,24.34Z" transform="translate(-0.41 0.08)"/><path class="cls-2" d="M198.33,24.2a1.86,1.86,0,0,1,.1-0.65,1.06,1.06,0,0,1,.27-0.42,1,1,0,0,1,.4-0.22,1.72,1.72,0,0,1,.49-0.07,1.69,1.69,0,0,1,.48.07,1,1,0,0,1,.4.22,1.1,1.1,0,0,1,.27.42,2.09,2.09,0,0,1,0,1.29,1.1,1.1,0,0,1-.27.42,1,1,0,0,1-.4.22,1.69,1.69,0,0,1-.48.07,1.72,1.72,0,0,1-.49-0.07,1,1,0,0,1-.4-0.22,1.05,1.05,0,0,1-.27-0.42A1.87,1.87,0,0,1,198.33,24.2Z" transform="translate(-0.41 0.08)"/></svg>